<svg fill="#000000" xmlns="http://www.w3.org/2000/svg" viewBox="0 0 26 26" width="26px" height="26px"><path fill="none" stroke="#000000" stroke-linecap="round" stroke-linejoin="round" stroke-miterlimit="10" stroke-width="1.95" d="M8.938 22.608L1.088 24.912 3.392 17.063"/><path d="M1.894 21.158l-.86 2.931c-.072.249-.004.517.178.7.135.134.316.207.5.207.067 0 .135-.01.2-.029l2.931-.86L1.894 21.158zM5.175 18.832L6.772 19.19 7.002 20.658 17.996 9.674 16.17 7.846zM19.202 10.857L8.123 21.926 9.546 23.35 20.669 12.324zM15.085 6.739L13.774 5.43 2.652 16.454 4.006 17.808zM21.666 11.229L14.771 4.334 16.349 2.855 23.243 9.75zM24.061 8.548l-6.607-6.608 1.014-1.025c.902-.902 2.373-.895 3.285.018l3.305 3.304c.912.913.92 2.384.018 3.286L24.061 8.548z"/></svg>